<mxfile host="app.diagrams.net" modified="2024-07-16T01:40:34.446Z" agent="Mozilla/5.0 (X11; Linux x86_64) AppleWebKit/537.36 (KHTML, like Gecko) Chrome/124.0.0.0 Safari/537.36" etag="U-ubicnuZOkG0L1Hi3ew" version="24.6.5" type="device">
  <diagram name="Page-1" id="TzU9-zcNvCz5MglPedcH">
    <mxGraphModel dx="1949" dy="1084" grid="1" gridSize="10" guides="1" tooltips="1" connect="1" arrows="1" fold="1" page="1" pageScale="1" pageWidth="850" pageHeight="1100" math="0" shadow="0">
      <root>
        <mxCell id="0" />
        <mxCell id="1" parent="0" />
        <mxCell id="lwFVNXQHeAuVYruWyH7m-19" style="rounded=0;orthogonalLoop=1;jettySize=auto;html=1;exitX=0;exitY=1;exitDx=0;exitDy=0;entryX=0.5;entryY=0;entryDx=0;entryDy=0;" edge="1" parent="1" source="vKzjhBZKH60MJ0A3ZZLd-1" target="lwFVNXQHeAuVYruWyH7m-13">
          <mxGeometry relative="1" as="geometry" />
        </mxCell>
        <mxCell id="lwFVNXQHeAuVYruWyH7m-20" value="&amp;nbsp; 2.&amp;nbsp;Registra Pedido&amp;nbsp;&amp;nbsp;" style="edgeLabel;html=1;align=center;verticalAlign=middle;resizable=0;points=[];rotation=-45;" vertex="1" connectable="0" parent="lwFVNXQHeAuVYruWyH7m-19">
          <mxGeometry x="-0.0179" y="-4" relative="1" as="geometry">
            <mxPoint x="3" y="3" as="offset" />
          </mxGeometry>
        </mxCell>
        <mxCell id="lwFVNXQHeAuVYruWyH7m-31" style="rounded=0;orthogonalLoop=1;jettySize=auto;html=1;exitX=0.75;exitY=1;exitDx=0;exitDy=0;entryX=0;entryY=0;entryDx=0;entryDy=0;" edge="1" parent="1" source="vKzjhBZKH60MJ0A3ZZLd-1" target="lwFVNXQHeAuVYruWyH7m-12">
          <mxGeometry relative="1" as="geometry" />
        </mxCell>
        <mxCell id="vKzjhBZKH60MJ0A3ZZLd-1" value="Order-API" style="rounded=0;whiteSpace=wrap;html=1;fillColor=#8EABED;strokeColor=#1D63ED;" parent="1" vertex="1">
          <mxGeometry x="310" y="20" width="120" height="60" as="geometry" />
        </mxCell>
        <mxCell id="lwFVNXQHeAuVYruWyH7m-33" style="rounded=0;orthogonalLoop=1;jettySize=auto;html=1;exitX=0.5;exitY=0;exitDx=0;exitDy=0;entryX=1;entryY=0.5;entryDx=0;entryDy=0;" edge="1" parent="1" source="lwFVNXQHeAuVYruWyH7m-12" target="vKzjhBZKH60MJ0A3ZZLd-1">
          <mxGeometry relative="1" as="geometry" />
        </mxCell>
        <mxCell id="lwFVNXQHeAuVYruWyH7m-12" value="Cook-API" style="rounded=0;whiteSpace=wrap;html=1;fillColor=#8EABED;strokeColor=#1D63ED;" vertex="1" parent="1">
          <mxGeometry x="510" y="210" width="120" height="60" as="geometry" />
        </mxCell>
        <mxCell id="lwFVNXQHeAuVYruWyH7m-13" value="Payment-API" style="rounded=0;whiteSpace=wrap;html=1;fillColor=#8EABED;strokeColor=#1D63ED;" vertex="1" parent="1">
          <mxGeometry x="110" y="220" width="120" height="60" as="geometry" />
        </mxCell>
        <mxCell id="lwFVNXQHeAuVYruWyH7m-16" style="edgeStyle=orthogonalEdgeStyle;rounded=0;orthogonalLoop=1;jettySize=auto;html=1;entryX=0;entryY=0.5;entryDx=0;entryDy=0;" edge="1" parent="1">
          <mxGeometry relative="1" as="geometry">
            <mxPoint x="110" y="30" as="sourcePoint" />
            <mxPoint x="310" y="30" as="targetPoint" />
          </mxGeometry>
        </mxCell>
        <mxCell id="lwFVNXQHeAuVYruWyH7m-17" value="&amp;nbsp; 1. Cria Pedido&amp;nbsp;&amp;nbsp;" style="edgeLabel;html=1;align=center;verticalAlign=middle;resizable=0;points=[];" vertex="1" connectable="0" parent="lwFVNXQHeAuVYruWyH7m-16">
          <mxGeometry x="0.0964" y="-3" relative="1" as="geometry">
            <mxPoint x="-11" y="-3" as="offset" />
          </mxGeometry>
        </mxCell>
        <mxCell id="lwFVNXQHeAuVYruWyH7m-14" value="Consumidor" style="shape=umlActor;verticalLabelPosition=bottom;verticalAlign=top;html=1;outlineConnect=0;" vertex="1" parent="1">
          <mxGeometry x="70" y="20" width="30" height="60" as="geometry" />
        </mxCell>
        <mxCell id="lwFVNXQHeAuVYruWyH7m-21" style="edgeStyle=orthogonalEdgeStyle;rounded=0;orthogonalLoop=1;jettySize=auto;html=1;exitX=0.25;exitY=0;exitDx=0;exitDy=0;entryX=0;entryY=0.5;entryDx=0;entryDy=0;curved=1;" edge="1" parent="1" source="lwFVNXQHeAuVYruWyH7m-13" target="lwFVNXQHeAuVYruWyH7m-13">
          <mxGeometry relative="1" as="geometry">
            <Array as="points">
              <mxPoint x="140" y="170" />
              <mxPoint x="30" y="170" />
              <mxPoint x="30" y="250" />
            </Array>
          </mxGeometry>
        </mxCell>
        <mxCell id="lwFVNXQHeAuVYruWyH7m-22" value="&amp;nbsp; 3. Cria Pagamento&amp;nbsp;&amp;nbsp;" style="edgeLabel;html=1;align=center;verticalAlign=middle;resizable=0;points=[];" vertex="1" connectable="0" parent="lwFVNXQHeAuVYruWyH7m-21">
          <mxGeometry x="-0.2914" y="1" relative="1" as="geometry">
            <mxPoint x="3" y="9" as="offset" />
          </mxGeometry>
        </mxCell>
        <mxCell id="lwFVNXQHeAuVYruWyH7m-25" style="rounded=0;orthogonalLoop=1;jettySize=auto;html=1;entryX=1;entryY=0.5;entryDx=0;entryDy=0;" edge="1" parent="1" target="lwFVNXQHeAuVYruWyH7m-13">
          <mxGeometry relative="1" as="geometry">
            <mxPoint x="380" y="250" as="sourcePoint" />
            <mxPoint x="170" y="280" as="targetPoint" />
          </mxGeometry>
        </mxCell>
        <mxCell id="lwFVNXQHeAuVYruWyH7m-26" value="&amp;nbsp; 4. Confirma Pagamento" style="edgeLabel;html=1;align=center;verticalAlign=middle;resizable=0;points=[];rotation=0;" vertex="1" connectable="0" parent="lwFVNXQHeAuVYruWyH7m-25">
          <mxGeometry x="0.096" y="-1" relative="1" as="geometry">
            <mxPoint x="10" as="offset" />
          </mxGeometry>
        </mxCell>
        <mxCell id="lwFVNXQHeAuVYruWyH7m-23" value="Gateway Pagamento" style="shape=umlActor;verticalLabelPosition=bottom;verticalAlign=top;html=1;outlineConnect=0;" vertex="1" parent="1">
          <mxGeometry x="390" y="210" width="30" height="60" as="geometry" />
        </mxCell>
        <mxCell id="lwFVNXQHeAuVYruWyH7m-28" style="rounded=0;orthogonalLoop=1;jettySize=auto;html=1;entryX=0.5;entryY=1;entryDx=0;entryDy=0;exitX=1;exitY=0;exitDx=0;exitDy=0;" edge="1" parent="1" source="lwFVNXQHeAuVYruWyH7m-13" target="vKzjhBZKH60MJ0A3ZZLd-1">
          <mxGeometry relative="1" as="geometry">
            <mxPoint x="230" y="230" as="sourcePoint" />
            <mxPoint x="340" y="100" as="targetPoint" />
          </mxGeometry>
        </mxCell>
        <mxCell id="lwFVNXQHeAuVYruWyH7m-29" value="&amp;nbsp; 5. Confirma Pagamento" style="edgeLabel;html=1;align=center;verticalAlign=middle;resizable=0;points=[];rotation=314;" vertex="1" connectable="0" parent="lwFVNXQHeAuVYruWyH7m-28">
          <mxGeometry x="0.096" y="-1" relative="1" as="geometry">
            <mxPoint x="-11" y="10" as="offset" />
          </mxGeometry>
        </mxCell>
        <mxCell id="lwFVNXQHeAuVYruWyH7m-32" value="&amp;nbsp; 6. Registra Pedido&amp;nbsp;&amp;nbsp;" style="edgeLabel;html=1;align=center;verticalAlign=middle;resizable=0;points=[];rotation=50;" vertex="1" connectable="0" parent="1">
          <mxGeometry x="450.00463914933397" y="136.9995744130394" as="geometry" />
        </mxCell>
        <mxCell id="lwFVNXQHeAuVYruWyH7m-34" value="&amp;nbsp; 8. Atualiza Pedido (PROD.)&amp;nbsp;&amp;nbsp;" style="edgeLabel;html=1;align=center;verticalAlign=middle;resizable=0;points=[];rotation=50;" vertex="1" connectable="0" parent="1">
          <mxGeometry x="500.00463914933397" y="129.9995744130394" as="geometry">
            <mxPoint x="-1.0125581099838556" y="-3.460451715297574" as="offset" />
          </mxGeometry>
        </mxCell>
        <mxCell id="lwFVNXQHeAuVYruWyH7m-35" style="rounded=0;orthogonalLoop=1;jettySize=auto;html=1;exitX=0.5;exitY=0;exitDx=0;exitDy=0;edgeStyle=orthogonalEdgeStyle;curved=1;" edge="1" parent="1">
          <mxGeometry relative="1" as="geometry">
            <mxPoint x="620" y="210" as="sourcePoint" />
            <mxPoint x="430" y="30" as="targetPoint" />
            <Array as="points">
              <mxPoint x="620" y="30" />
              <mxPoint x="430" y="30" />
            </Array>
          </mxGeometry>
        </mxCell>
        <mxCell id="lwFVNXQHeAuVYruWyH7m-36" value="&amp;nbsp; 10. Atualiza Pedido (PRONTO)" style="edgeLabel;html=1;align=center;verticalAlign=middle;resizable=0;points=[];rotation=50;" vertex="1" connectable="0" parent="1">
          <mxGeometry x="570.004639149334" y="89.9995744130394" as="geometry" />
        </mxCell>
        <mxCell id="lwFVNXQHeAuVYruWyH7m-38" style="edgeStyle=orthogonalEdgeStyle;rounded=0;orthogonalLoop=1;jettySize=auto;html=1;entryX=0;entryY=0.5;entryDx=0;entryDy=0;" edge="1" parent="1">
          <mxGeometry relative="1" as="geometry">
            <mxPoint x="110" y="60" as="sourcePoint" />
            <mxPoint x="310" y="60" as="targetPoint" />
          </mxGeometry>
        </mxCell>
        <mxCell id="lwFVNXQHeAuVYruWyH7m-39" value="&amp;nbsp; 11. Retira Pedido&amp;nbsp;&amp;nbsp;" style="edgeLabel;html=1;align=center;verticalAlign=middle;resizable=0;points=[];" vertex="1" connectable="0" parent="lwFVNXQHeAuVYruWyH7m-38">
          <mxGeometry x="0.0964" y="-3" relative="1" as="geometry">
            <mxPoint x="-11" y="-3" as="offset" />
          </mxGeometry>
        </mxCell>
        <mxCell id="lwFVNXQHeAuVYruWyH7m-42" value="Cozinha" style="shape=umlActor;verticalLabelPosition=bottom;verticalAlign=top;html=1;outlineConnect=0;" vertex="1" parent="1">
          <mxGeometry x="790" y="210" width="30" height="60" as="geometry" />
        </mxCell>
        <mxCell id="lwFVNXQHeAuVYruWyH7m-47" style="rounded=0;orthogonalLoop=1;jettySize=auto;html=1;entryX=1;entryY=0.5;entryDx=0;entryDy=0;" edge="1" parent="1" target="lwFVNXQHeAuVYruWyH7m-12">
          <mxGeometry relative="1" as="geometry">
            <mxPoint x="780" y="240" as="sourcePoint" />
            <mxPoint x="510" y="270" as="targetPoint" />
          </mxGeometry>
        </mxCell>
        <mxCell id="lwFVNXQHeAuVYruWyH7m-48" value="&amp;nbsp; 7. Inicia ProduÃ§Ã£o" style="edgeLabel;html=1;align=center;verticalAlign=middle;resizable=0;points=[];rotation=0;" vertex="1" connectable="0" parent="lwFVNXQHeAuVYruWyH7m-47">
          <mxGeometry x="0.096" y="-1" relative="1" as="geometry">
            <mxPoint x="10" as="offset" />
          </mxGeometry>
        </mxCell>
        <mxCell id="lwFVNXQHeAuVYruWyH7m-59" style="edgeStyle=orthogonalEdgeStyle;rounded=0;orthogonalLoop=1;jettySize=auto;html=1;exitX=0.5;exitY=1;exitDx=0;exitDy=0;" edge="1" parent="1" source="lwFVNXQHeAuVYruWyH7m-51" target="lwFVNXQHeAuVYruWyH7m-54">
          <mxGeometry relative="1" as="geometry" />
        </mxCell>
        <mxCell id="lwFVNXQHeAuVYruWyH7m-60" style="edgeStyle=orthogonalEdgeStyle;rounded=0;orthogonalLoop=1;jettySize=auto;html=1;exitX=0.5;exitY=1;exitDx=0;exitDy=0;" edge="1" parent="1" source="lwFVNXQHeAuVYruWyH7m-51" target="lwFVNXQHeAuVYruWyH7m-55">
          <mxGeometry relative="1" as="geometry" />
        </mxCell>
        <mxCell id="lwFVNXQHeAuVYruWyH7m-51" value="Order-API" style="rounded=0;whiteSpace=wrap;html=1;fillColor=#8EABED;strokeColor=#1D63ED;" vertex="1" parent="1">
          <mxGeometry x="127.25999999999999" y="390" width="120" height="60" as="geometry" />
        </mxCell>
        <mxCell id="lwFVNXQHeAuVYruWyH7m-62" style="edgeStyle=orthogonalEdgeStyle;rounded=0;orthogonalLoop=1;jettySize=auto;html=1;exitX=0.5;exitY=1;exitDx=0;exitDy=0;entryX=0.5;entryY=0;entryDx=0;entryDy=0;" edge="1" parent="1" source="lwFVNXQHeAuVYruWyH7m-52" target="lwFVNXQHeAuVYruWyH7m-57">
          <mxGeometry relative="1" as="geometry" />
        </mxCell>
        <mxCell id="lwFVNXQHeAuVYruWyH7m-52" value="Cook-API" style="rounded=0;whiteSpace=wrap;html=1;fillColor=#8EABED;strokeColor=#1D63ED;" vertex="1" parent="1">
          <mxGeometry x="647.26" y="390" width="120" height="60" as="geometry" />
        </mxCell>
        <mxCell id="lwFVNXQHeAuVYruWyH7m-61" style="edgeStyle=orthogonalEdgeStyle;rounded=0;orthogonalLoop=1;jettySize=auto;html=1;exitX=0.5;exitY=1;exitDx=0;exitDy=0;entryX=0.5;entryY=0;entryDx=0;entryDy=0;" edge="1" parent="1" source="lwFVNXQHeAuVYruWyH7m-53" target="lwFVNXQHeAuVYruWyH7m-56">
          <mxGeometry relative="1" as="geometry" />
        </mxCell>
        <mxCell id="lwFVNXQHeAuVYruWyH7m-53" value="Payment-API" style="rounded=0;whiteSpace=wrap;html=1;fillColor=#8EABED;strokeColor=#1D63ED;" vertex="1" parent="1">
          <mxGeometry x="407.26" y="390" width="120" height="60" as="geometry" />
        </mxCell>
        <mxCell id="lwFVNXQHeAuVYruWyH7m-54" value="" style="shape=image;verticalLabelPosition=bottom;labelBackgroundColor=default;verticalAlign=top;aspect=fixed;imageAspect=0;image=https://static-00.iconduck.com/assets.00/database-mysql-icon-462x512-6itsq0zm.png;" vertex="1" parent="1">
          <mxGeometry x="73.05" y="510" width="92.98" height="103.04" as="geometry" />
        </mxCell>
        <mxCell id="lwFVNXQHeAuVYruWyH7m-55" value="" style="shape=image;verticalLabelPosition=bottom;labelBackgroundColor=default;verticalAlign=top;aspect=fixed;imageAspect=0;image=https://static-00.iconduck.com/assets.00/redis-original-wordmark-icon-2045x2048-nz2tg5u6.png;" vertex="1" parent="1">
          <mxGeometry x="206.02999999999997" y="510" width="95.44" height="95.6" as="geometry" />
        </mxCell>
        <mxCell id="lwFVNXQHeAuVYruWyH7m-56" value="" style="shape=image;verticalLabelPosition=bottom;labelBackgroundColor=default;verticalAlign=top;aspect=fixed;imageAspect=0;image=https://static-00.iconduck.com/assets.00/database-mysql-icon-462x512-6itsq0zm.png;" vertex="1" parent="1">
          <mxGeometry x="420.77" y="510" width="92.98" height="103.04" as="geometry" />
        </mxCell>
        <mxCell id="lwFVNXQHeAuVYruWyH7m-57" value="" style="shape=image;verticalLabelPosition=bottom;labelBackgroundColor=default;verticalAlign=top;aspect=fixed;imageAspect=0;image=https://www.opc-router.de/wp-content/uploads/2021/03/mongodb_thumbnail.png;" vertex="1" parent="1">
          <mxGeometry x="662.65" y="510" width="89.22" height="120" as="geometry" />
        </mxCell>
        <mxCell id="lwFVNXQHeAuVYruWyH7m-63" value="&lt;b&gt;Store records:&lt;/b&gt;&lt;br&gt;Produtos&lt;br&gt;Ingredientes&lt;br&gt;Consumidores&lt;br&gt;Pedidos" style="text;html=1;strokeColor=none;fillColor=none;align=center;verticalAlign=top;whiteSpace=wrap;rounded=0;" vertex="1" parent="1">
          <mxGeometry x="70" y="630" width="99.08" height="80" as="geometry" />
        </mxCell>
        <mxCell id="lwFVNXQHeAuVYruWyH7m-64" value="&lt;b&gt;Endpoint caching&lt;/b&gt;" style="text;html=1;strokeColor=none;fillColor=none;align=center;verticalAlign=top;whiteSpace=wrap;rounded=0;" vertex="1" parent="1">
          <mxGeometry x="201.30999999999997" y="630" width="104.87" height="80" as="geometry" />
        </mxCell>
        <mxCell id="lwFVNXQHeAuVYruWyH7m-65" value="&lt;b&gt;Store records:&lt;/b&gt;&lt;br&gt;Pagamentos&lt;br&gt;Pedidos" style="text;html=1;strokeColor=none;fillColor=none;align=center;verticalAlign=top;whiteSpace=wrap;rounded=0;" vertex="1" parent="1">
          <mxGeometry x="417.72" y="630" width="99.08" height="80" as="geometry" />
        </mxCell>
        <mxCell id="lwFVNXQHeAuVYruWyH7m-66" value="&lt;b&gt;Store records:&lt;/b&gt;&lt;br&gt;Pedidos" style="text;html=1;strokeColor=none;fillColor=none;align=center;verticalAlign=top;whiteSpace=wrap;rounded=0;" vertex="1" parent="1">
          <mxGeometry x="657.72" y="630" width="99.08" height="80" as="geometry" />
        </mxCell>
      </root>
    </mxGraphModel>
  </diagram>
</mxfile>
